<svg xmlns="http://www.w3.org/2000/svg" width="42" height="42" viewBox="0 0 24 24"><path fill="#be123c" d="M12 16.462q.262 0 .438-.177q.177-.177.177-.439q0-.261-.177-.438q-.176-.177-.438-.177t-.438.177t-.177.438t.177.439q.176.177.438.177m0-3.308q.213 0 .357-.144t.143-.356v-5q0-.213-.144-.356q-.144-.144-.357-.144t-.356.144t-.143.356v5q0 .212.144.356t.357.144M12.003 21q-1.866 0-3.51-.708q-1.643-.709-2.859-1.924t-1.925-2.856T3 12.003t.708-3.51t1.924-2.859t2.856-1.925T11.997 3t3.51.708t2.859 1.924t1.925 2.856t.709 3.509t-.708 3.51t-1.924 2.859t-2.856 1.925t-3.509.709"/></svg>